Coordinates
version=1
nRows=19
nColumns=32
inDegrees=no

Units are S.I. units (second, meters, Newtons, ...)
If the header above contains a line with 'inDegrees', this indicates whether rotational values are in degrees (yes) or radians (no).

endheader
time	pelvis_tilt	pelvis_list	pelvis_rotation	pelvis_tx	pelvis_ty	pelvis_tz	hip_flexion_r	hip_adduction_r	hip_rotation_r	knee_angle_r	ankle_angle_r	subtalar_angle_r	mtp_angle_r	hip_flexion_l	hip_adduction_l	hip_rotation_l	knee_angle_l	ankle_angle_l	subtalar_angle_l	mtp_angle_l	lumbar_extension	lumbar_bending	lumbar_rotation	arm_flex_r	arm_add_r	arm_rot_r	elbow_flex_r	arm_flex_l	arm_add_l	arm_rot_l	elbow_flex_l
2.69	-0.176963	0.0305576	-0.0422365	0.881776	0.998315	-0.28676	0.954032	0.00672238	-0.1397	0.495388	-0.0725663	-0.1039	0.0163499	-0.383905	0.0027817	-0.126407	0.660054	-0.401088	0.331539	-0.0355336	-0.0178756	-0.0469471	-0.304484	-1.17303	-0.27523	-0.142249	1.8494	-0.471166	-0.26318	-0.101439	2.44643
2.695	-0.173334	0.037687	-0.0456086	0.881606	0.998441	-0.286441	0.928549	0.00720807	-0.152606	0.43579	-0.0740626	-0.057498	0.0163591	-0.372895	0.00882952	-0.119946	0.730406	-0.392641	0.329893	-0.0355064	-0.0223394	-0.0529775	-0.301744	-1.16404	-0.26907	-0.137622	1.84771	-0.480862	-0.264193	-0.101744	2.44597
2.7	-0.168713	0.0426032	-0.0491341	0.881376	0.998494	-0.286044	0.902768	0.00938048	-0.167626	0.383675	-0.0767214	-0.0147667	0.0163683	-0.361121	0.0118849	-0.117936	0.803305	-0.385206	0.323877	-0.0354793	-0.0283619	-0.0567569	-0.298354	-1.15242	-0.263083	-0.13225	1.84476	-0.491021	-0.264509	-0.102308	2.44353
2.705	-0.163303	0.0450086	-0.0525858	0.881091	0.998467	-0.285599	0.87713	0.0131778	-0.184698	0.339679	-0.0805524	0.0229592	0.0163776	-0.348551	0.0115674	-0.119342	0.878278	-0.377568	0.313427	-0.0354522	-0.0356677	-0.0579182	-0.294513	-1.13838	-0.25736	-0.126267	1.84069	-0.501609	-0.264054	-0.103011	2.43911
2.71	-0.157437	0.0449284	-0.0557559	0.880743	0.998341	-0.285146	0.852192	0.0182742	-0.203592	0.304221	-0.085512	0.054572	0.0163868	-0.334961	0.00787601	-0.123093	0.954875	-0.368729	0.298645	-0.035425	-0.0438528	-0.0564204	-0.290386	-1.12214	-0.251969	-0.119791	1.83566	-0.512546	-0.262804	-0.103735	2.43271
2.715	-0.151525	0.0426646	-0.0584934	0.880318	0.998091	-0.28473	0.82853	0.0241615	-0.223885	0.277442	-0.0914947	0.0793233	0.0163961	-0.320003	0.00114726	-0.1282	1.03264	-0.358057	0.279745	-0.0353979	-0.0524394	-0.0525071	-0.286072	-1.10391	-0.246946	-0.112918	1.8298	-0.523716	-0.260782	-0.104373	2.42433
2.72	-0.145984	0.0386934	-0.0607298	0.879801	0.997686	-0.284389	0.806619	0.0302778	-0.244944	0.259164	-0.0983585	0.0968803	0.0164054	-0.3033	-0.00806407	-0.133847	1.11112	-0.345318	0.25704	-0.0353708	-0.0609483	-0.0466075	-0.281579	-1.08387	-0.242307	-0.105711	1.82323	-0.53498	-0.258042	-0.104842	2.41401
2.725	-0.14117	0.0335485	-0.0624863	0.879177	0.997095	-0.284146	0.786756	0.0361342	-0.265906	0.248893	-0.105953	0.107305	0.0164147	-0.28453	-0.0191266	-0.139437	1.18985	-0.330617	0.230979	-0.0353436	-0.0689654	-0.0392227	-0.276831	-1.06222	-0.238055	-0.0982094	1.81605	-0.546197	-0.254662	-0.105087	2.40178
2.73	-0.137343	0.0277224	-0.0638625	0.87844	0.996291	-0.28401	0.769029	0.0414066	-0.285693	0.245899	-0.114119	0.110961	0.0164241	-0.263474	-0.0314581	-0.144591	1.26841	-0.31429	0.202178	-0.0353165	-0.0761883	-0.0308258	-0.27168	-1.03915	-0.234193	-0.0904257	1.80839	-0.557236	-0.250738	-0.105085	2.38768
2.735	-0.134646	0.0215949	-0.0650112	0.877589	0.995254	-0.283973	0.753362	0.0459823	-0.303075	0.249344	-0.122635	0.108389	0.0164334	-0.240038	-0.044612	-0.149107	1.34641	-0.296781	0.171439	-0.0352894	-0.0824465	-0.0217878	-0.265936	-1.01486	-0.230733	-0.0823618	1.80035	-0.567991	-0.246367	-0.104839	2.37181
2.74	-0.133114	0.0153987	-0.0661049	0.87663	0.99397	-0.284016	0.73958	0.0499553	-0.316826	0.258428	-0.131094	0.100219	0.0164428	-0.214226	-0.0583123	-0.152879	1.42354	-0.278532	0.139753	-0.0352623	-0.0876925	-0.0123405	-0.259403	-0.989521	-0.227701	-0.0740194	1.79209	-0.578381	-0.241648	-0.104372	2.35424
2.745	-0.132705	0.00922467	-0.0673067	0.875569	0.99243	-0.284112	0.727498	0.0535796	-0.325901	0.272518	-0.138745	0.0871172	0.0164522	-0.186109	-0.0724382	-0.155824	1.49953	-0.259911	0.10825	-0.0352352	-0.0919757	-0.00258121	-0.2519	-0.963319	-0.225136	-0.0654083	1.78374	-0.588348	-0.236674	-0.103715	2.33511
2.75	-0.133316	0.00305488	-0.0687489	0.874416	0.990629	-0.284233	0.716978	0.0572017	-0.329605	0.291225	-0.144372	0.0697559	0.0164617	-0.155788	-0.086975	-0.157834	1.57413	-0.241207	0.0781079	-0.035208	-0.0954124	0.00749298	-0.243283	-0.936401	-0.223085	-0.0565476	1.77547	-0.597857	-0.231531	-0.102899	2.31452
2.755	-0.134813	-0.00319782	-0.0705122	0.873182	0.988564	-0.284356	0.70795	0.0611867	-0.327722	0.314412	-0.146267	0.0487905	0.0164711	-0.123353	-0.101962	-0.158741	1.64713	-0.222647	0.0504167	-0.0351809	-0.0981593	0.0179464	-0.233466	-0.908882	-0.221605	-0.0474658	1.76743	-0.606885	-0.226303	-0.101948	2.29261
2.76	-0.137047	-0.00965136	-0.0726068	0.871872	0.986232	-0.284464	0.700404	0.0658487	-0.32059	0.342129	-0.142364	0.0248654	0.0164806	-0.0888611	-0.117444	-0.158296	1.71831	-0.204396	0.0260818	-0.0351538	-0.100401	0.0288692	-0.222429	-0.880837	-0.220754	-0.0382027	1.75977	-0.615414	-0.221065	-0.100862	2.26951
2.765	-0.139844	-0.0164163	-0.0749617	0.870491	0.983633	-0.284556	0.694318	0.0713857	-0.309113	0.37449	-0.130558	-0.00133607	0.0164901	-0.0523319	-0.133425	-0.156168	1.78749	-0.186549	0.00575563	-0.0351266	-0.102355	0.0403423	-0.210229	-0.852295	-0.220577	-0.0288145	1.75265	-0.623419	-0.215889	-0.0996238	2.24538
2.77	-0.142997	-0.02356	-0.0774322	0.869038	0.98077	-0.284639	0.689581	0.0778317	-0.294698	0.411507	-0.109172	-0.0290258	0.0164996	-0.0137797	-0.149825	-0.151965	1.85444	-0.169135	-0.010176	-0.0350995	-0.104283	0.0523987	-0.196989	-0.823255	-0.221106	-0.0193755	1.74625	-0.630867	-0.21085	-0.0981959	2.22043
2.775	-0.146261	-0.0310809	-0.0798314	0.867498	0.977676	-0.284737	0.685908	0.0850565	-0.279038	0.452915	-0.0774998	-0.0573406	0.0165092	0.0267559	-0.166466	-0.14529	1.91891	-0.152117	-0.0215607	-0.0350723	-0.10649	0.0649917	-0.182864	-0.793701	-0.222341	-0.00997597	1.74077	-0.637724	-0.206027	-0.0965339	2.19495
2.78	-0.149373	-0.03891	-0.0819851	0.865857	0.974406	-0.284872	0.682825	0.0928375	-0.263764	0.49803	-0.0362129	-0.0855053	0.0165187	0.069195	-0.183092	-0.135819	1.98057	-0.135395	-0.0284306	-0.0350451	-0.109292	0.0779841	-0.167991	-0.763625	-0.224244	-0.000716178	1.73644	-0.643967	-0.201519	-0.0946027	2.16928
